# xmcd CD database file
# Copyright (C) 1993-1998 Ti Kan
# 
# Track frame offsets:
#     150
#     12940
#     26622
#     43175
#     58817
#     74887
#     91167
#     106547
#     119565
#     131270
#     143955
#     156935
#     168615
# 
# Disc length: 2415 seconds
# 
# Revision: 1
# Processed by: cddbd v1.4b41PL1 Copyright (c) Steve Scherf et al.
# Submitted via: DiscPlay 4.0.4
# 
DISCID=b7096d0d
DTITLE=Albin Berger - Verr ckt nach Liebe
DYEAR=1900
DGENRE=
TTITLE0=Nach langer Zeit
TTITLE1=Du bist mehr
TTITLE2=Du bist alles was ich habe
TTITLE3=Ich habe nicht das Herz
TTITLE4=Wo k nnte es sch ner sein
TTITLE5=Ich werde mit keiner anderen tanzen
TTITLE6=Gl ck und Tr nen am W rthersee
TTITLE7=Erst wenn wir and re Wege gehen
TTITLE8=Wo warst Du
TTITLE9=Rote Korallen
TTITLE10=Verr ckt nach Liebe
TTITLE11=Caroline
TTITLE12=Es ist Liebe
EXTD=
EXTT0=
EXTT1=
EXTT2=
EXTT3=
EXTT4=
EXTT5=
EXTT6=
EXTT7=
EXTT8=
EXTT9=
EXTT10=
EXTT11=
EXTT12=
PLAYORDER=
